<?xml version="1.0" encoding="UTF-8"?>
<svg version="1.1" xmlns="http://www.w3.org/2000/svg" width="256" height="256">
<path d="M0 0 C84.48 0 168.96 0 256 0 C256 84.48 256 168.96 256 256 C171.52 256 87.04 256 0 256 C0 171.52 0 87.04 0 0 Z " fill="#FEFEFE" transform="translate(0,0)"/>
<path d="M0 0 C3.5386994 1.65139305 4.81070153 2.71605229 7 6 C7.47774834 11.47728384 6.31458628 15.99983816 4.5625 21.125 C4.01817745 22.77950314 3.47531293 24.43448639 2.93359375 26.08984375 C2.63050293 27.00878418 2.32741211 27.92772461 2.01513672 28.87451172 C0.2001715 34.46257924 -1.52453646 40.07897775 -3.25857544 45.69256592 C-4.25083749 48.90382244 -5.24683651 52.11391842 -6.2421875 55.32421875 C-6.8281922 57.21612502 -7.41415687 59.10804369 -8 61 C-7.3834404 60.98747192 -6.7668808 60.97494385 -6.13163757 60.96203613 C0.44155804 60.82901808 7.01482277 60.69988723 13.58813477 60.57275391 C16.0227237 60.52519524 18.45729516 60.47673085 20.8918457 60.42724609 C28.03950063 60.28231123 35.18710231 60.15581987 42.33551025 60.05419922 C44.82935456 60.0173143 47.32313367 59.97579492 49.8168335 59.93017578 C53.53801955 59.86510119 57.25893291 59.82068049 60.98046875 59.78125 C62.11527176 59.75800659 63.25007477 59.73476318 64.41926575 59.71081543 C65.47353256 59.70376587 66.52779938 59.69671631 67.61401367 59.68945312 C68.99758308 59.67066101 68.99758308 59.67066101 70.40910339 59.65148926 C74.35507699 60.18227624 76.98658495 62.02153029 79.8125 64.75 C81.54568109 68.03392206 81.44932633 70.34119985 81 74 C78.5701498 78.04975033 76.42457078 79.57082984 72 81 C69.13053894 81.2784729 69.13053894 81.2784729 65.93823242 81.31884766 C64.73474655 81.33871735 63.53126068 81.35858704 62.29130554 81.37905884 C60.9924794 81.39061005 59.69365326 81.40216125 58.35546875 81.4140625 C56.98520315 81.43283163 55.6149484 81.45240899 54.2447052 81.4727478 C50.62575085 81.52408632 47.00675686 81.5636053 43.38763428 81.60089111 C40.50612532 81.63246645 37.62475926 81.67220569 34.74336052 81.71246719 C17.82886932 81.94868621 0.91631375 82.06004753 -16 82 C-16.12834229 83.03318359 -16.25668457 84.06636719 -16.38891602 85.13085938 C-16.93174258 88.56782117 -17.69504081 91.60958328 -18.77734375 94.90625 C-19.12603516 95.98003906 -19.47472656 97.05382812 -19.83398438 98.16015625 C-20.19814453 99.26230469 -20.56230469 100.36445312 -20.9375 101.5 C-21.65589871 103.69760608 -22.37337216 105.89551488 -23.08984375 108.09375 C-23.59040283 109.62708984 -23.59040283 109.62708984 -24.10107422 111.19140625 C-25.1419765 114.44358981 -26.09641365 117.70735028 -27 121 C-25.72552002 120.76095947 -25.72552002 120.76095947 -24.42529297 120.51708984 C-5.63841092 117.68098035 15.87525295 118.00435034 32.0625 128.6875 C39.53360534 134.65314953 44.18610951 141.93301954 47 151 C47.27263672 151.85851562 47.27263672 151.85851562 47.55078125 152.734375 C50.18029364 165.99626357 47.95116615 180.64307196 40.4375 191.875 C29.5839176 205.51206571 13.76258099 211.47051143 -3 214 C-3.8146875 214.13148438 -4.629375 214.26296875 -5.46875 214.3984375 C-11.35065386 215.16474188 -17.3255567 215.19602158 -23.25 215.3125 C-24.11455811 215.34239014 -24.97911621 215.37228027 -25.86987305 215.40307617 C-31.58094438 215.4545173 -34.611201 214.7173266 -39 211 C-41.34578248 207.80120571 -41.47675156 204.89347111 -41 201 C-39.20006226 198.30009338 -37.916227 196.4581135 -35 195 C-33.60596725 194.88336418 -32.20712501 194.82133516 -30.80859375 194.7890625 C-29.95458984 194.76295898 -29.10058594 194.73685547 -28.22070312 194.70996094 C-27.30224609 194.68192383 -26.38378906 194.65388672 -25.4375 194.625 C-10.52274748 194.01841916 7.10335267 192.89239243 19.5625 183.6875 C25.09285402 177.58993019 27.32183427 170.84238638 27.21484375 162.69921875 C26.76126725 157.00064857 25.27255525 152.54046162 21.625 148.125 C13.5966104 141.62582747 5.35531766 140.63686609 -4.75 140.75 C-6.06097656 140.75906372 -6.06097656 140.75906372 -7.3984375 140.76831055 C-16.70952521 140.90993384 -25.38866426 142.26895532 -34.375 144.6875 C-38.94278318 145.86104113 -42.39611198 146.50331037 -47 145 C-49.9375 143.125 -49.9375 143.125 -52 140 C-53.00638029 132.35764533 -51.39665286 125.56399249 -48.97265625 118.37109375 C-48.66428329 117.41477554 -48.35591034 116.45845734 -48.03819275 115.47315979 C-47.06123293 112.4561638 -46.06214162 109.44704649 -45.0625 106.4375 C-44.39504718 104.38523248 -43.72901844 102.33250124 -43.06445312 100.27929688 C-41.85099039 96.54722251 -40.63358611 92.81659306 -39.39868164 89.09155273 C-39.02894981 87.97549904 -39.02894981 87.97549904 -38.65174866 86.8368988 C-38 85 -38 85 -37 83 C-38.09208015 83.00999275 -38.09208015 83.00999275 -39.20622253 83.02018738 C-46.077054 83.08036999 -52.94784591 83.12601074 -59.81887341 83.15543652 C-63.35112466 83.17107343 -66.88315759 83.19227501 -70.4152832 83.22631836 C-74.47869937 83.26523603 -78.54188721 83.27972547 -82.60546875 83.29296875 C-84.50258858 83.31619453 -84.50258858 83.31619453 -86.43803406 83.33988953 C-87.61888077 83.34011612 -88.79972748 83.34034271 -90.01635742 83.34057617 C-91.05338303 83.34723801 -92.09040863 83.35389984 -93.15885925 83.36076355 C-96.45740478 82.94191947 -98.33299018 81.95434192 -101 80 C-102.72869779 76.54260443 -102.48966895 72.78024432 -102 69 C-100.20606332 66.12970131 -99.01736724 64.50868362 -96 63 C-93.83381916 62.84341086 -91.66302518 62.74934606 -89.4921875 62.68359375 C-88.82630615 62.66276733 -88.1604248 62.64194092 -87.47436523 62.6204834 C-85.27469872 62.55396889 -83.07491192 62.49528953 -80.875 62.4375 C-80.12655823 62.41632111 -79.37811646 62.39514221 -78.60699463 62.37332153 C-62.40411961 61.9178649 -46.20793601 61.89273917 -30 62 C-29.75636719 60.79988281 -29.51273437 59.59976563 -29.26171875 58.36328125 C-27.81364114 51.861527 -25.80394946 45.53972384 -23.8125 39.1875 C-23.61402466 38.55425812 -23.41554932 37.92101624 -23.21105957 37.26858521 C-21.82110474 32.84129329 -20.41290751 28.42001693 -19 24 C-18.66210449 22.93330078 -18.32420898 21.86660156 -17.97607422 20.76757812 C-17.08707775 17.98391652 -16.17437635 15.20958191 -15.25 12.4375 C-14.99323486 11.63014404 -14.73646973 10.82278809 -14.47192383 9.9909668 C-11.92422456 2.55174966 -8.30761257 -1.03845157 0 0 Z " fill="#29917A" transform="translate(128,19)"/>
<path d="M0 0 C0.66 0 1.32 0 2 0 C2.8971875 1.36125 2.8971875 1.36125 3.8125 2.75 C5.95784188 5.93736508 7.93696996 7.7430305 11 10 C11.66 10.66 12.32 11.32 13 12 C12.45730469 12.36351562 11.91460937 12.72703125 11.35546875 13.1015625 C6.84581443 16.27050878 4.02425927 18.68631943 2 24 C1.34 24 0.68 24 0 24 C-0.91140665 22.58225631 -1.82034745 21.16284818 -2.71484375 19.734375 C-4.9980759 16.65305258 -8.0095928 14.3688057 -11 12 C-10.29875 11.505 -9.5975 11.01 -8.875 10.5 C-5.77357418 7.80310798 -3.65727434 4.97146791 -1.33203125 1.609375 C-0.89246094 1.07828125 -0.45289063 0.5471875 0 0 Z " fill="#329FCF" transform="translate(232,49)"/>
<path d="M0 0 C0.721875 0.7425 1.44375 1.485 2.1875 2.25 C4.68904985 4.69595985 7.25827847 6.835483 10 9 C11.0173873 9.98230498 12.02596117 10.97469597 13 12 C12.0925 12.556875 11.185 13.11375 10.25 13.6875 C6.57596747 16.30171545 4.02076161 18.95847678 2 23 C-1.40414403 21.86528532 -2.24276648 20.82774013 -4.5 18.125 C-6.58578225 15.64584653 -8.67301287 13.2560424 -11 11 C-10.45730469 10.62488281 -9.91460938 10.24976563 -9.35546875 9.86328125 C-5.29719077 6.96033285 -2.18018412 4.63289127 0 0 Z " fill="#2F9ECF" transform="translate(29,209)"/>
<path d="M0 0 C4.39570794 -0.0872253 8.79119271 -0.14046869 13.1875 -0.1875 C14.43337891 -0.21263672 15.67925781 -0.23777344 16.96289062 -0.26367188 C18.16494141 -0.27333984 19.36699219 -0.28300781 20.60546875 -0.29296875 C21.71043701 -0.3086792 22.81540527 -0.32438965 23.95385742 -0.34057617 C28.20160499 0.13434631 30.77790883 1.82004991 33.8125 4.75 C35.54568109 8.03392206 35.44932633 10.34119985 35 14 C32.57211494 18.0464751 30.42299254 19.57327955 26 21 C23.22924805 21.22705078 23.22924805 21.22705078 20.26171875 21.1953125 C18.66166992 21.18564453 18.66166992 21.18564453 17.02929688 21.17578125 C15.37510742 21.15064453 15.37510742 21.15064453 13.6875 21.125 C12.56537109 21.11597656 11.44324219 21.10695313 10.28710938 21.09765625 C7.52452091 21.07414486 4.76237068 21.04128155 2 21 C2 20.67 2 20.34 2 20 C9.59 19.67 17.18 19.34 25 19 C25.33 16.69 25.66 14.38 26 12 C27.65 11.67 29.3 11.34 31 11 C30.67 10.34 30.34 9.68 30 9 C29.01 9 28.02 9 27 9 C26.67 6.36 26.34 3.72 26 1 C17.42 1 8.84 1 0 1 C0 0.67 0 0.34 0 0 Z " fill="#449ACA" transform="translate(174,79)"/>
<path d="M0 0 C2 1 2 1 2.75 3.1875 C3.05194616 6.58439429 2.24302818 8.85586991 1 12 C1.66 12.66 2.32 13.32 3 14 C2.3125 15.9375 2.3125 15.9375 1 18 C-1.625 18.75 -1.625 18.75 -4 19 C-4.33 21.31 -4.66 23.62 -5 26 C-5.928125 25.979375 -6.85625 25.95875 -7.8125 25.9375 C-11.02286011 25.84230396 -11.02286011 25.84230396 -14 27 C-14.33 26.01 -14.66 25.02 -15 24 C-14.46890625 23.6596875 -13.9378125 23.319375 -13.390625 22.96875 C-6.340909 18.13171858 -3.63564602 13.32567981 -1.8125 5.0625 C-1.67457031 4.31097656 -1.53664062 3.55945313 -1.39453125 2.78515625 C-1 1 -1 1 0 0 Z " fill="#1E7FA1" transform="translate(157,182)"/>
<path d="M0 0 C-0.66 0 -1.32 0 -2 0 C-2 0.66 -2 1.32 -2 2 C-2.99 2 -3.98 2 -5 2 C-4.67 2.66 -4.34 3.32 -4 4 C-3.34 4 -2.68 4 -2 4 C-2 7.33333333 -2 10.66666667 -2 14 C-3.75 14.75 -3.75 14.75 -6 15 C-8.25 13.4375 -8.25 13.4375 -10 11 C-10.66974422 7.06525272 -10.35110528 5.52665792 -8.125 2.1875 C-5.08914341 -0.93764649 -4.05288049 -1.21586415 0 0 Z " fill="#319F55" transform="translate(97,215)"/>
<path d="M0 0 C1.65 0.33 3.3 0.66 5 1 C4.6962026 8.98987156 3.94196767 18.05803233 -2 24 C-1.979375 22.88625 -1.95875 21.7725 -1.9375 20.625 C-1.73619282 17.16784079 -1.73619282 17.16784079 -3 15 C-2.71758117 12.6599583 -2.38749213 10.32495277 -2 8 C-1.01 8 -0.02 8 1 8 C1.33 6.02 1.66 4.04 2 2 C1.34 2 0.68 2 0 2 C0 1.34 0 0.68 0 0 Z " fill="#1471AA" transform="translate(171,184)"/>
<path d="M0 0 C2.31 0.33 4.62 0.66 7 1 C5.63598642 6.626556 1.44071099 9.66946676 -3 13 C-4.97787337 14.1842309 -6.87297885 15.09601601 -9 16 C-9.125 13.125 -9.125 13.125 -9 10 C-6.4345406 7.4345406 -4.52313332 7.45953913 -1 7 C-0.67 4.69 -0.34 2.38 0 0 Z " fill="#1E7EA2" transform="translate(161,208)"/>
<path d="M0 0 C1.22589844 0.01353516 1.22589844 0.01353516 2.4765625 0.02734375 C3.41628906 0.04474609 3.41628906 0.04474609 4.375 0.0625 C3.385 1.5475 3.385 1.5475 2.375 3.0625 C2.375 2.4025 2.375 1.7425 2.375 1.0625 C0.065 1.7225 -2.245 2.3825 -4.625 3.0625 C-4.82073608 4.49890171 -5.00627816 5.93669504 -5.1875 7.375 C-5.34412109 8.57576172 -5.34412109 8.57576172 -5.50390625 9.80078125 C-5.77255178 12.23067116 -5.77255178 12.23067116 -4.625 15.0625 C-5.285 15.7225 -5.945 16.3825 -6.625 17.0625 C-6.295 17.7225 -5.965 18.3825 -5.625 19.0625 C-9.5 17.3125 -9.5 17.3125 -10.625 15.0625 C-11.18012815 10.43036507 -11.2614242 7.08077873 -8.75 3.0625 C-5.68929905 0.18184028 -4.09501886 -0.05850027 0 0 Z " fill="#83C17B" transform="translate(36.625,81.9375)"/>
<path d="M0 0 C4.20185927 1.5093153 5.62156899 4.10198618 7.8125 7.875 C8.43769531 8.92429688 9.06289062 9.97359375 9.70703125 11.0546875 C11 14 11 14 10.69921875 16.3828125 C10.46847656 16.91648438 10.23773438 17.45015625 10 18 C8.68 17.67 7.36 17.34 6 17 C5.29925156 13.846632 5 11.27275026 5 8 C2.23735711 7.40267181 -0.16032769 7 -3 7 C-3 6.34 -3 5.68 -3 5 C-2.34 4.67 -1.68 4.34 -1 4 C-0.34786708 1.97536745 -0.34786708 1.97536745 0 0 Z " fill="#1D7AAA" transform="translate(163,152)"/>
<path d="M0 0 C0.99 1.32 1.98 2.64 3 4 C2.01 4.33 1.02 4.66 0 5 C-0.33 7.31 -0.66 9.62 -1 12 C-2.3921875 11.9690625 -2.3921875 11.9690625 -3.8125 11.9375 C-7.02286011 11.84230396 -7.02286011 11.84230396 -10 13 C-10.33 12.01 -10.66 11.02 -11 10 C-10.18595703 9.41992188 -10.18595703 9.41992188 -9.35546875 8.828125 C-8.64003906 8.30734375 -7.92460937 7.7865625 -7.1875 7.25 C-6.47980469 6.73953125 -5.77210938 6.2290625 -5.04296875 5.703125 C-2.97022309 3.97517642 -1.52624146 2.21473524 0 0 Z " fill="#1F8197" transform="translate(153,196)"/>
<path d="M0 0 C0.66 0 1.32 0 2 0 C1.28547412 4.76350585 0.20465156 9.34201396 -1 14 C-4.62567717 15.03590776 -7.67716802 15.58792533 -11.25 14 C-12.11625 13.505 -12.11625 13.505 -13 13 C-9.38026598 11.68373308 -6.90432869 11 -3 11 C-2.86722656 10.37351562 -2.73445313 9.74703125 -2.59765625 9.1015625 C-2.42105469 8.28429687 -2.24445313 7.46703125 -2.0625 6.625 C-1.88847656 5.81289062 -1.71445313 5.00078125 -1.53515625 4.1640625 C-1 2 -1 2 0 0 Z " fill="#2A9D54" transform="translate(101,70)"/>
<path d="M0 0 C1.11684665 3.35053994 1.06874808 5.62933298 0 9 C-3.23529412 13.74509804 -3.23529412 13.74509804 -7 15 C-6.71517632 13.58194169 -6.42181856 12.16559621 -6.125 10.75 C-5.96257812 9.96109375 -5.80015625 9.1721875 -5.6328125 8.359375 C-4.51856618 4.20502454 -3.64672662 2.43115108 0 0 Z " fill="#2B9B69" transform="translate(110,50)"/>
<path d="M0 0 C0.33 0 0.66 0 1 0 C1 13 1 13 0 16 C-0.66 15.67 -1.32 15.34 -2 15 C-2.268125 16.051875 -2.53625 17.10375 -2.8125 18.1875 C-3.8676829 21.57519246 -5.04726378 24.07089567 -7 27 C-8.47791028 24.04417943 -7.36472484 22.43408491 -6.34765625 19.3359375 C-5.98349609 18.21445313 -5.61933594 17.09296875 -5.24414062 15.9375 C-4.65922852 14.1740625 -4.65922852 14.1740625 -4.0625 12.375 C-3.67642578 11.19164063 -3.29035156 10.00828125 -2.89257812 8.7890625 C-1.93497595 5.85714473 -0.97051855 2.92766254 0 0 Z " fill="#45A762" transform="translate(86,116)"/>
<path d="M0 0 C1.0625 1.8125 1.0625 1.8125 2 4 C1.67 4.99 1.34 5.98 1 7 C1.99 7 2.98 7 4 7 C3 9 3 9 1 12 C1.30840599 14.15274948 1.30840599 14.15274948 2 16 C1.01 15.67 0.02 15.34 -1 15 C-1.125 8.375 -1.125 8.375 0 5 C-1.65 5 -3.3 5 -5 5 C-4.67 3.68 -4.34 2.36 -4 1 C-2.68 0.67 -1.36 0.34 0 0 Z " fill="#35A157" transform="translate(91,96)"/>
<path d="M0 0 C3.96 0 7.92 0 12 0 C12 2.64 12 5.28 12 8 C9.99743426 6.85865673 7.99800203 5.71181367 6 4.5625 C4.88625 3.92441406 3.7725 3.28632813 2.625 2.62890625 C1.75875 2.09136719 0.8925 1.55382812 0 1 C0 0.67 0 0.34 0 0 Z " fill="#208397" transform="translate(140,160)"/>
<path d="M0 0 C1.093125 0.185625 2.18625 0.37125 3.3125 0.5625 C6.93624133 1.2578068 6.93624133 1.2578068 10 0 C11.66621616 -0.03874921 13.33394172 -0.0450286 15 0 C11.6269381 2.96829447 8.37031116 4.06350475 4 5 C1.5625 4.625 1.5625 4.625 0 4 C0 2.68 0 1.36 0 0 Z " fill="#258796" transform="translate(136,224)"/>
<path d="M0 0 C4.35535069 1.16142685 6.64619703 2.07699505 9 6 C6.03 5.505 6.03 5.505 3 5 C3 5.66 3 6.32 3 7 C1.68 6.67 0.36 6.34 -1 6 C-1.042721 4.33388095 -1.04063832 2.66617115 -1 1 C-0.67 0.67 -0.34 0.34 0 0 Z " fill="#1A7C9D" transform="translate(153,145)"/>
<path d="M0 0 C5.21979128 -0.1799928 9.07262981 0.02905192 14 2 C13.67 2.66 13.34 3.32 13 4 C11.39592672 4.02708567 9.7917215 4.04643483 8.1875 4.0625 C6.84751953 4.07990234 6.84751953 4.07990234 5.48046875 4.09765625 C3 4 3 4 0 3 C0 2.01 0 1.02 0 0 Z " fill="#1E878E" transform="translate(134,140)"/>
<path d="M0 0 C0.5625 1.9375 0.5625 1.9375 1 4 C0.67 4.33 0.34 4.66 0 5 C-1.52519276 4.91062197 -3.04681929 4.75462854 -4.5625 4.5625 C-5.80193359 4.40974609 -5.80193359 4.40974609 -7.06640625 4.25390625 C-7.70449219 4.17011719 -8.34257813 4.08632812 -9 4 C-8.67 3.01 -8.34 2.02 -8 1 C-5.07175348 0.02391783 -3.04386724 -0.08226668 0 0 Z " fill="#1E8A80" transform="translate(133,154)"/>
<path d="M0 0 C1.5 1.0625 1.5 1.0625 3 3 C3.38991688 7.36706908 3.46324069 9.30513897 1 13 C0.34 13 -0.32 13 -1 13 C-1.07654536 8.48382401 -1.10228696 4.40914783 0 0 Z " fill="#41A4D2" transform="translate(206,83)"/>
<path d="M0 0 C0.66 0 1.32 0 2 0 C1.32829194 3.8063457 0.27253436 7.35206816 -1 11 C-1.33 11 -1.66 11 -2 11 C-2.99 7.7 -3.98 4.4 -5 1 C-3.35 1 -1.7 1 0 1 C0 0.67 0 0.34 0 0 Z " fill="#2180A1" transform="translate(157,168)"/>
<path d="M0 0 C0.33 0.66 0.66 1.32 1 2 C0.0625 4.625 0.0625 4.625 -1 7 C-0.01 7 0.98 7 2 7 C1.67 7.99 1.34 8.98 1 10 C-0.66666667 10 -2.33333333 10 -4 10 C-4 7.03 -4 4.06 -4 1 C-2.68 0.67 -1.36 0.34 0 0 Z " fill="#269B58" transform="translate(101,134)"/>
<path d="M0 0 C2 1 2 1 2.75 3.1875 C3.05194616 6.58439429 2.24302818 8.85586991 1 12 C0.34 11.67 -0.32 11.34 -1 11 C-1.02688151 9.35425434 -1.04634123 7.70838587 -1.0625 6.0625 C-1.07410156 5.14597656 -1.08570313 4.22945312 -1.09765625 3.28515625 C-1 1 -1 1 0 0 Z " fill="#137A9D" transform="translate(157,182)"/>
<path d="M0 0 C1.0625 1.875 1.0625 1.875 2 4 C1.67 4.66 1.34 5.32 1 6 C1.66 6.66 2.32 7.32 3 8 C1.25 12.875 1.25 12.875 -1 14 C-1.02705729 12.22925083 -1.04642195 10.45838289 -1.0625 8.6875 C-1.07410156 7.70136719 -1.08570312 6.71523437 -1.09765625 5.69921875 C-1 3 -1 3 0 0 Z " fill="#4DAA63" transform="translate(77,145)"/>
<path d="M0 0 C2.97 0.495 2.97 0.495 6 1 C6.625 2.8125 6.625 2.8125 7 5 C6.01 6.485 6.01 6.485 5 8 C5 7.01 5 6.02 5 5 C2.03 4.505 2.03 4.505 -1 4 C-0.67 2.68 -0.34 1.36 0 0 Z " fill="#228C7F" transform="translate(124,19)"/>
<path d="M0 0 C0.84181413 3.15680299 1 5.72572803 1 9 C-0.875 9.625 -0.875 9.625 -3 10 C-3.66 9.34 -4.32 8.68 -5 8 C-4.34 7.34 -3.68 6.68 -3 6 C-2.31246699 4.34183216 -1.64438717 2.67540664 -1 1 C-0.67 0.67 -0.34 0.34 0 0 Z " fill="#299E52" transform="translate(94,220)"/>
<path d="M0 0 C0.66 0 1.32 0 2 0 C1.33333333 4 0.66666667 8 0 12 C-0.99 11.67 -1.98 11.34 -3 11 C-2.69078116 9.54096742 -2.37751201 8.08279278 -2.0625 6.625 C-1.88847656 5.81289062 -1.71445313 5.00078125 -1.53515625 4.1640625 C-1 2 -1 2 0 0 Z " fill="#37A266" transform="translate(101,70)"/>
<path d="M0 0 C0.66 0 1.32 0 2 0 C3.35439668 2.70879335 3.06501451 5.00933268 3 8 C2.34 8 1.68 8 1 8 C0.34 7.01 -0.32 6.02 -1 5 C-3.05003955 3.80767387 -3.05003955 3.80767387 -5 3 C-3.35 2.67 -1.7 2.34 0 2 C0 1.34 0 0.68 0 0 Z " fill="#2179B0" transform="translate(173,172)"/>
<path d="M0 0 C0.66 0 1.32 0 2 0 C2.36666667 5.5 2.36666667 5.5 0.625 7.875 C-1 9 -1 9 -3 9 C-2.01 6.03 -1.02 3.06 0 0 Z " fill="#329B76" transform="translate(114,30)"/>
<path d="M0 0 C1.2380014 3.57644848 0.74926071 6.33694766 0 10 C-0.99 10 -1.98 10 -3 10 C-3.36923077 4.58461538 -3.36923077 4.58461538 -1.5 1.625 C-1.005 1.08875 -0.51 0.5525 0 0 Z " fill="#4EAC6D" transform="translate(90,216)"/>
<path d="M0 0 C3 1 3 1 5 4 C4.625 6.6875 4.625 6.6875 4 9 C2 7.875 2 7.875 0 6 C-0.25 2.8125 -0.25 2.8125 0 0 Z " fill="#2E918B" transform="translate(130,21)"/>
<path d="M0 0 C5.75 1.75 5.75 1.75 8 4 C1.25 5.125 1.25 5.125 -1 4 C-0.67 2.68 -0.34 1.36 0 0 Z " fill="#4EAC68" transform="translate(82,160)"/>
<path d="M0 0 C0.99 0.66 1.98 1.32 3 2 C2.67 2.99 2.34 3.98 2 5 C0.02 5 -1.96 5 -4 5 C-2.25 1.125 -2.25 1.125 0 0 Z " fill="#71B86B" transform="translate(44,97)"/>
<path d="M0 0 C0.33 0 0.66 0 1 0 C1.43177893 6.26079448 0.92739438 9.09075703 -3 14 C-4 12 -4 12 -3.22265625 9.1796875 C-2.83980469 8.08914062 -2.45695312 6.99859375 -2.0625 5.875 C-1.68222656 4.77929688 -1.30195312 3.68359375 -0.91015625 2.5546875 C-0.60980469 1.71164063 -0.30945313 0.86859375 0 0 Z " fill="#5AB271" transform="translate(82,129)"/>
<path d="M0 0 C2.97 0 5.94 0 9 0 C9 0.99 9 1.98 9 3 C6.03 3 3.06 3 0 3 C0 2.01 0 1.02 0 0 Z " fill="#47A75A" transform="translate(72,98)"/>
<path d="M0 0 C1.32 0.66 2.64 1.32 4 2 C2.49336217 5.01327566 -0.03166411 5.61056618 -3 7 C-3.33 6.01 -3.66 5.02 -4 4 C-3.34 4 -2.68 4 -2 4 C-2 3.34 -2 2.68 -2 2 C-1.34 2 -0.68 2 0 2 C0 1.34 0 0.68 0 0 Z " fill="#3AA2D2" transform="translate(38,218)"/>
<path d="M0 0 C0.99 0.33 1.98 0.66 3 1 C2.75 2.875 2.75 2.875 2 5 C-0.0625 6.25 -0.0625 6.25 -2 7 C-1.125 1.125 -1.125 1.125 0 0 Z " fill="#369F6D" transform="translate(105,58)"/>
<path d="M0 0 C2.97 0 5.94 0 9 0 C6 3 6 3 2.8125 3.1875 C1.4203125 3.0946875 1.4203125 3.0946875 0 3 C0 2.01 0 1.02 0 0 Z " fill="#5EB061" transform="translate(57,82)"/>
<path d="M0 0 C0.99 0 1.98 0 3 0 C2.67 1.98 2.34 3.96 2 6 C0.68 6 -0.64 6 -2 6 C-1.34 4.02 -0.68 2.04 0 0 Z " fill="#1C8982" transform="translate(131,225)"/>
<path d="M0 0 C0.99 0 1.98 0 3 0 C2 2 2 2 0 5 C0.30840599 7.15274948 0.30840599 7.15274948 1 9 C0.01 8.67 -0.98 8.34 -2 8 C-2.20086443 4.28400809 -2.1519437 3.22791555 0 0 Z " fill="#2B9F52" transform="translate(92,103)"/>
<path d="M0 0 C2.31 0.33 4.62 0.66 7 1 C6.67 1.99 6.34 2.98 6 4 C5.34 4 4.68 4 4 4 C4 3.34 4 2.68 4 2 C2.02 2.99 2.02 2.99 0 4 C0 2.68 0 1.36 0 0 Z " fill="#1076A2" transform="translate(161,208)"/>
<path d="M0 0 C2.97 0.495 2.97 0.495 6 1 C5.34 2.32 4.68 3.64 4 5 C2.68 4.67 1.36 4.34 0 4 C0 2.68 0 1.36 0 0 Z " fill="#1B858A" transform="translate(136,224)"/>
</svg>
