<svg xmlns="http://www.w3.org/2000/svg" viewBox="0 0 512 512">
  <rect width="512" height="512" rx="128" fill="#00C2CB" />
  
  <g fill="none" stroke="#FFFFFF" stroke-width="64" stroke-linecap="round" stroke-linejoin="round">
    <line x1="140" y1="160" x2="372" y2="160" />
    
    <path d="M256,160 L256,230 C256,230 256,400 160,400 C100,400 100,300 200,260 C280,230 400,300 400,400" 
          d="M256,160 V220 C256,340 400,340 400,420" 
          style="display:none" /> 
          
    <path d="M256,160 L256,240 C256,350 130,350 130,410 C130,450 180,460 250,420 C320,380 350,300 350,240" 
          stroke="none" fill="none" />

    <path d="M140,150 H372 M256,150 V240 C256,360 120,360 120,410 C120,465 220,465 280,430 C340,395 360,320 360,260" 
          stroke-width="56" />
  </g>
  
  <path d="M136 156 H376" stroke="#FFFFFF" stroke-width="60" stroke-linecap="round" />
  
  <path d="M256 156 V230 C256 310 146 310 146 380 C146 430 196 440 246 420 C320 390 356 320 356 250" 
        fill="none" stroke="#FFFFFF" stroke-width="60" stroke-linecap="round" stroke-linejoin="round"/>
</svg>